<svg width="22" height="23" viewBox="0 0 22 23" fill="none" xmlns="http://www.w3.org/2000/svg">
<path d="M6.8152 14.1407C6.94034 14.1941 7.07477 14.2224 7.21082 14.2239C7.48657 14.2197 7.75059 14.1117 7.9502 13.9214C7.995 13.8719 8.03675 13.8197 8.07519 13.7651C8.11465 13.7071 8.14618 13.644 8.16895 13.5776C8.19905 13.5186 8.22011 13.4554 8.23144 13.3901C8.24295 13.3213 8.24984 13.2517 8.25207 13.182C8.24811 12.9063 8.14031 12.6423 7.9502 12.4426C7.80225 12.3004 7.61628 12.204 7.41475 12.1652C7.21322 12.1264 7.00477 12.1468 6.81457 12.2239C6.6871 12.2742 6.57042 12.3485 6.47082 12.4426C6.37888 12.5439 6.3049 12.6602 6.25207 12.7864C6.19867 12.9115 6.17043 13.0459 6.16895 13.182C6.17096 13.4584 6.27929 13.7233 6.47145 13.922C6.57105 14.0161 6.68772 14.0904 6.8152 14.1407Z" fill="#979C9E"/>
<path d="M10.8558 14.2239C10.7196 14.2229 10.5849 14.195 10.4595 14.142C10.332 14.0916 10.2154 14.0174 10.1158 13.9232C9.92369 13.7243 9.81558 13.4591 9.81389 13.1826C9.81537 13.0466 9.84362 12.9121 9.89701 12.787C9.94985 12.6608 10.0238 12.5445 10.1158 12.4432C10.2154 12.3491 10.332 12.2748 10.4595 12.2245C10.6492 12.1449 10.8582 12.1231 11.0603 12.1619C11.2623 12.2007 11.4484 12.2984 11.5951 12.4426C11.7853 12.6423 11.8931 12.9063 11.897 13.182C11.8949 13.2524 11.888 13.3225 11.8764 13.392C11.8651 13.4573 11.844 13.5205 11.8139 13.5795C11.7911 13.6459 11.7596 13.7089 11.7201 13.767C11.6817 13.8216 11.6399 13.8737 11.5951 13.9232C11.3952 14.1128 11.1313 14.2202 10.8558 14.2239Z" fill="#979C9E"/>
<path d="M14.1058 14.142C14.2313 14.195 14.3659 14.2229 14.5021 14.2239C14.7776 14.2202 15.0416 14.1128 15.2415 13.9232C15.2863 13.8737 15.328 13.8216 15.3665 13.767C15.4059 13.7089 15.4374 13.6459 15.4602 13.5795C15.4903 13.5205 15.5114 13.4573 15.5227 13.392C15.5343 13.3225 15.5412 13.2524 15.5433 13.182C15.5394 12.9063 15.4316 12.6423 15.2415 12.4426C15.095 12.2979 14.909 12.1999 14.7068 12.161C14.5047 12.122 14.2955 12.1439 14.1058 12.2239C13.9784 12.2742 13.8617 12.3485 13.7621 12.4426C13.5718 12.6424 13.464 12.9067 13.4602 13.1826C13.4624 13.2528 13.4693 13.3227 13.4808 13.392C13.4922 13.4573 13.5132 13.5205 13.5433 13.5795C13.5661 13.6459 13.5976 13.7089 13.6371 13.767L13.7621 13.9232C13.8617 14.0174 13.9784 14.0916 14.1058 14.142Z" fill="#979C9E"/>
<path d="M7.21082 17.8695C7.07477 17.868 6.94034 17.8398 6.8152 17.7864C6.68901 17.7335 6.57276 17.6595 6.47145 17.5676C6.2811 17.368 6.17307 17.104 6.16895 16.8282C6.17043 16.6922 6.19867 16.5578 6.25207 16.4326C6.2999 16.3039 6.37445 16.1867 6.47082 16.0889C6.67228 15.9029 6.93636 15.7997 7.21051 15.7997C7.48465 15.7997 7.74874 15.9029 7.9502 16.0889C8.14031 16.2885 8.24811 16.5526 8.25207 16.8282C8.24811 17.1039 8.14031 17.368 7.9502 17.5676C7.75049 17.7577 7.48648 17.8655 7.21082 17.8695Z" fill="#979C9E"/>
<path d="M10.1158 17.5676C10.3156 17.7578 10.5799 17.8656 10.8558 17.8695C11.1314 17.8655 11.3954 17.7577 11.5951 17.5676C11.7853 17.368 11.8931 17.1039 11.897 16.8282C11.8955 16.6922 11.8673 16.5578 11.8139 16.4326C11.7661 16.3039 11.6915 16.1867 11.5951 16.0889C11.3937 15.9029 11.1296 15.7997 10.8555 15.7997C10.5813 15.7997 10.3172 15.9029 10.1158 16.0889C10.0194 16.1867 9.94484 16.3039 9.89701 16.4326C9.84362 16.5578 9.81537 16.6922 9.81389 16.8282C9.81785 17.1039 9.92565 17.368 10.1158 17.5676Z" fill="#979C9E"/>
<path d="M14.5021 17.8701C14.2261 17.8661 13.9618 17.7581 13.7621 17.5676C13.6657 17.4698 13.5912 17.3526 13.5433 17.2239C13.4899 17.0987 13.4617 16.9643 13.4602 16.8282C13.4617 16.6922 13.4899 16.5578 13.5433 16.4326C13.5912 16.3039 13.6657 16.1867 13.7621 16.0889C13.8833 15.9687 14.0322 15.8801 14.1957 15.8311C14.3592 15.782 14.5322 15.774 14.6996 15.8076C14.7686 15.8173 14.8356 15.8384 14.8977 15.8701C14.9641 15.8929 15.0272 15.9244 15.0852 15.9639C15.1398 16.0023 15.192 16.0441 15.2415 16.0889C15.4316 16.2885 15.5394 16.5526 15.5433 16.8282C15.5394 17.1039 15.4316 17.368 15.2415 17.5676C15.0419 17.7579 14.7778 17.8659 14.5021 17.8701Z" fill="#979C9E"/>
<path fill-rule="evenodd" clip-rule="evenodd" d="M6.68957 22.817H15.0227C18.8252 22.817 21.0127 20.6295 21.0127 16.8276V7.97387C21.0127 4.44049 19.1233 2.30152 15.804 2.01702V1.46387C15.8025 1.25712 15.7197 1.05926 15.5735 0.913068C15.4273 0.766873 15.2295 0.68409 15.0227 0.682617C14.816 0.68409 14.6181 0.766873 14.4719 0.913068C14.3257 1.05926 14.2429 1.25712 14.2415 1.46387V1.98449H7.47144V1.46387C7.46996 1.25712 7.38718 1.05926 7.24098 0.913068C7.09479 0.766873 6.89693 0.68409 6.69019 0.682617C6.48344 0.68409 6.28558 0.766873 6.13939 0.913068C5.99319 1.05926 5.91041 1.25712 5.90894 1.46387V2.01698C2.58982 2.3013 0.700195 4.44031 0.700195 7.97387V16.8276C0.700195 20.6295 2.8877 22.817 6.68957 22.817ZM5.90894 3.58356C3.4575 3.82534 2.2627 5.26817 2.2627 7.97387V8.06762H19.4496V7.97387C19.4501 5.26839 18.2551 3.82558 15.804 3.58362V4.58887C15.8025 4.79561 15.7197 4.99347 15.5735 5.13967C15.4273 5.28586 15.2295 5.36864 15.0227 5.37012C14.816 5.36864 14.6181 5.28586 14.4719 5.13967C14.3257 4.99347 14.2429 4.79561 14.2415 4.58887V3.54699H7.47144V4.58887C7.46996 4.79561 7.38718 4.99347 7.24098 5.13967C7.09479 5.28586 6.89693 5.36864 6.69019 5.37012C6.48344 5.36864 6.28558 5.28586 6.13939 5.13967C5.99319 4.99347 5.91041 4.79561 5.90894 4.58887V3.58356ZM19.4496 9.63012V16.8276C19.4496 19.8064 18.0021 21.2545 15.0227 21.2545H6.68957C3.71082 21.2545 2.2627 19.807 2.2627 16.8276V9.63012H19.4496Z" fill="#979C9E"/>
</svg>
