<svg width="80" height="19" viewBox="0 0 80 19" fill="none" xmlns="http://www.w3.org/2000/svg">
<path d="M5.11133 18.6H0.820312V0.217163H4.95898V7.32654H5.11133C5.43294 6.48018 5.94922 5.82003 6.66016 5.34607C7.37109 4.87211 8.23438 4.63513 9.25 4.63513C10.2064 4.63513 11.0443 4.85095 11.7637 5.28259C12.4915 5.70577 13.0544 6.30668 13.4521 7.08533C13.8499 7.86397 14.0488 8.7738 14.0488 9.81482V18.6H9.75781V10.6273C9.77474 9.84867 9.58008 9.2393 9.17383 8.79919C8.77604 8.35909 8.21745 8.13904 7.49805 8.13904C6.77865 8.13904 6.19889 8.37179 5.75879 8.83728C5.32715 9.29431 5.11133 9.91638 5.11133 10.7035V18.6ZM16.1055 14.766C16.1055 13.3441 16.5752 12.2946 17.5146 11.6176C18.4541 10.9405 19.6855 10.5511 21.209 10.4496C21.9707 10.3988 22.9017 10.3565 24.002 10.3226C24.1374 10.3057 24.3066 10.2972 24.5098 10.2972V9.18005C24.5098 8.69763 24.3447 8.32947 24.0146 8.07556C23.6846 7.81319 23.2233 7.68201 22.6309 7.68201C22.0553 7.68201 21.5941 7.8005 21.2471 8.03748C20.9001 8.27445 20.6842 8.62146 20.5996 9.07849H16.6133C16.6725 8.24906 16.9434 7.50004 17.4258 6.83142C17.9167 6.15434 18.6107 5.62113 19.5078 5.23181C20.4134 4.83403 21.4883 4.63513 22.7324 4.63513C23.8835 4.63513 24.916 4.8171 25.8301 5.18103C26.7526 5.5365 27.4762 6.06124 28.001 6.75525C28.5342 7.4408 28.8008 8.26599 28.8008 9.23083V18.6H24.7637V16.6703H24.6621C24.2728 17.3812 23.7438 17.9229 23.0752 18.2953C22.4066 18.6677 21.5983 18.8539 20.6504 18.8539C19.7533 18.8539 18.9619 18.7015 18.2764 18.3969C17.5993 18.0922 17.0661 17.6351 16.6768 17.0258C16.2959 16.4079 16.1055 15.6547 16.1055 14.766ZM20.168 14.5883C20.168 15.0453 20.3288 15.3965 20.6504 15.642C20.9805 15.8874 21.4121 16.0101 21.9453 16.0101C22.4277 16.0101 22.8678 15.9128 23.2656 15.7181C23.6634 15.5235 23.9766 15.2526 24.2051 14.9056C24.4336 14.5502 24.5436 14.1482 24.5352 13.6996V12.8109H24.2812L21.9199 12.9633C21.3783 13.031 20.9508 13.2087 20.6377 13.4965C20.3245 13.7758 20.168 14.1397 20.168 14.5883ZM37.8398 18.8539C36.4095 18.8539 35.1696 18.5704 34.1201 18.0033C33.0791 17.4278 32.2793 16.611 31.7207 15.5531C31.1621 14.4867 30.8828 13.2256 30.8828 11.7699C30.8828 10.3565 31.1621 9.11235 31.7207 8.03748C32.2793 6.95414 33.0706 6.11625 34.0947 5.5238C35.1273 4.93136 36.3249 4.63513 37.6875 4.63513C38.9909 4.63513 40.1419 4.90597 41.1406 5.44763C42.1478 5.9893 42.9307 6.7891 43.4893 7.84705C44.0563 8.90499 44.3398 10.1788 44.3398 11.6683V12.7601H35.0977V12.8363C35.0977 13.725 35.3516 14.4359 35.8594 14.9691C36.3672 15.4939 37.0527 15.7562 37.916 15.7562C38.4915 15.7562 38.9867 15.642 39.4014 15.4135C39.8245 15.1765 40.125 14.8506 40.3027 14.4359H44.2891C44.1198 15.333 43.7516 16.1159 43.1846 16.7845C42.6175 17.4447 41.877 17.9567 40.9629 18.3207C40.0573 18.6761 39.0163 18.8539 37.8398 18.8539ZM40.3535 10.2465C40.3451 9.76404 40.2308 9.3324 40.0107 8.95154C39.7907 8.57068 39.486 8.27445 39.0967 8.06287C38.7074 7.84281 38.2715 7.73279 37.7891 7.73279C37.2897 7.73279 36.8369 7.84281 36.4307 8.06287C36.0329 8.28292 35.7155 8.58337 35.4785 8.96423C35.2415 9.34509 35.1146 9.7725 35.0977 10.2465H40.3535ZM46.5488 4.81287H50.7129V7.30115H50.8398C51.0853 6.42094 51.4915 5.75232 52.0586 5.29529C52.6341 4.83826 53.3112 4.60974 54.0898 4.60974C54.4284 4.60974 54.8346 4.66052 55.3086 4.76208V8.49451C55.1139 8.43526 54.8516 8.38871 54.5215 8.35486C54.1914 8.31254 53.8867 8.29138 53.6074 8.29138C53.0742 8.29138 52.596 8.40987 52.1729 8.64685C51.7581 8.87537 51.4323 9.20121 51.1953 9.62439C50.9583 10.0391 50.8398 10.5173 50.8398 11.059V18.6H46.5488V4.81287Z" fill="#090A0A"/>
<path d="M65.3887 7.9613H62.875V14.2836C62.875 14.7237 62.9893 15.0241 63.2178 15.1849C63.4463 15.3457 63.7975 15.4261 64.2715 15.4261C64.627 15.4261 65.0586 15.4092 65.5664 15.3754V18.6508C65.1855 18.7015 64.8428 18.7396 64.5381 18.765C64.2419 18.7904 63.8737 18.8031 63.4336 18.8031C61.8763 18.8031 60.6787 18.473 59.8408 17.8129C59.0114 17.1442 58.6009 16.1286 58.6094 14.766V7.9613H56.7559V4.81287H58.6094V1.51208H62.875V4.81287H65.3887V7.9613ZM67.623 16.1371L74.0723 8.2406V8.13904H67.8262V4.81287H79.1758V7.50427L73.1836 15.1722V15.2484H79.4043V18.6H67.623V16.1371Z" fill="#5A6ED5"/>
</svg>
