<svg width="7" height="9" viewBox="0 0 7 9" fill="none" xmlns="http://www.w3.org/2000/svg">
<path fill-rule="evenodd" clip-rule="evenodd" d="M4.6597 2.93171C4.81294 3.16104 4.89473 3.43067 4.89473 3.70649C4.89473 3.88962 4.85866 4.07097 4.78857 4.24016C4.71849 4.40936 4.61577 4.5631 4.48627 4.69259C4.35677 4.82209 4.20304 4.92481 4.03384 4.9949C3.86464 5.06498 3.6833 5.10105 3.50016 5.10105C3.22434 5.10105 2.95472 5.01926 2.72538 4.86603C2.49605 4.71279 2.3173 4.49499 2.21175 4.24016C2.1062 3.98534 2.07858 3.70494 2.13239 3.43442C2.1862 3.1639 2.31902 2.91541 2.51405 2.72038C2.70909 2.52535 2.95758 2.39253 3.22809 2.33872C3.49861 2.28491 3.77901 2.31252 4.03384 2.41808C4.28866 2.52363 4.50646 2.70237 4.6597 2.93171ZM2.80444 3.24162C2.7125 3.37922 2.66342 3.541 2.66342 3.70649C2.66342 3.9284 2.75158 4.14123 2.9085 4.29815C2.98619 4.37585 3.07844 4.43748 3.17995 4.47953C3.28147 4.52158 3.39028 4.54323 3.50016 4.54323C3.66565 4.54323 3.82743 4.49415 3.96503 4.40221C4.10263 4.31027 4.20988 4.17959 4.27321 4.02669C4.33654 3.8738 4.35311 3.70556 4.32082 3.54325C4.28854 3.38094 4.20885 3.23184 4.09183 3.11482C3.97481 2.9978 3.82571 2.91811 3.6634 2.88582C3.50109 2.85354 3.33285 2.87011 3.17995 2.93344C3.02706 2.99677 2.89638 3.10402 2.80444 3.24162Z" fill="#494949"/>
<path fill-rule="evenodd" clip-rule="evenodd" d="M3.67311 8.38665C3.62403 8.42602 3.56309 8.44764 3.50017 8.44801C3.43726 8.44764 3.37633 8.42602 3.32726 8.38665C3.32248 8.38237 3.31224 8.37372 3.29706 8.36087C2.97542 8.08891 0.432129 5.93839 0.432129 3.70647C0.432129 2.01204 1.80573 0.638428 3.50017 0.638428C5.19461 0.638428 6.56823 2.01204 6.56823 3.70647C6.56823 5.93832 4.02509 8.08878 3.70333 8.36085C3.68813 8.37371 3.67789 8.38237 3.67311 8.38665ZM3.5002 1.19623C2.11382 1.19623 0.989955 2.32012 0.989955 3.70647C0.989955 5.46363 2.90609 7.27936 3.5002 7.80372C4.0943 7.27936 6.01044 5.46363 6.01044 3.70647C6.01044 2.32009 4.88658 1.19623 3.5002 1.19623Z" fill="#494949"/>
</svg>
