<svg width="36" height="36" viewBox="0 0 36 36" fill="none" xmlns="http://www.w3.org/2000/svg">
<path d="M0.0720168 11.6485V10.4732C0.0720168 4.73122 3.93071 0.868652 9.67064 0.868652H26.3585C32.1045 0.868652 35.9581 4.73222 35.9581 10.4732V23.825C35.9707 25.142 35.6957 26.4469 35.153 27.6469C34.6104 28.8469 33.8123 29.913 32.8151 30.7733C30.7312 32.5279 28.0833 33.471 25.3595 33.4256H24.5279C24.4969 33.4256 24.4669 33.4256 24.4369 33.4256C24.378 33.4414 24.3176 33.4476 24.2566 33.4472C24.0704 33.4472 23.8917 33.3732 23.7601 33.2415C23.6284 33.1098 23.5544 32.9321 23.5544 32.7459C23.5542 32.7011 23.5583 32.6566 23.5671 32.6127C23.571 32.5451 23.5811 32.4768 23.5965 32.4109C23.7328 31.7441 23.7967 31.066 23.7885 30.3854C23.7885 26.3445 21.6672 21.6471 18.1067 17.8308C15.5448 14.9838 12.2599 12.8844 8.60108 11.7523C6.26539 11.0152 3.74297 11.1394 1.49124 12.103C1.33399 12.1549 1.1853 12.2307 1.05147 12.3282C1.04353 12.3228 1.03532 12.319 1.026 12.3165C0.949223 12.3447 0.867841 12.3593 0.786037 12.3596C0.605321 12.3592 0.431066 12.2893 0.29925 12.1657C0.167433 12.042 0.0878793 11.8739 0.0759346 11.6936V11.6798L0.0720168 11.6485Z" fill="url(#paint0_radial_474_2522)"/>
<path d="M18.5028 32.2683C18.2008 32.266 17.9097 32.1551 17.6828 31.9558C17.4559 31.7565 17.3083 31.4822 17.2671 31.183C16.8966 27.7862 15.3777 24.6176 12.9615 22.2015C10.5453 19.7853 7.37676 18.2663 3.97993 17.8959C3.65008 17.8538 3.35045 17.6825 3.14693 17.4195C2.94342 17.1566 2.8527 16.8236 2.89472 16.4937C2.93675 16.1639 3.10809 15.8642 3.37104 15.6607C3.63399 15.4572 3.96702 15.3665 4.29686 15.4085C8.24424 15.8366 11.9269 17.6005 14.7347 20.4079C17.5424 23.2153 19.3068 26.8977 19.7354 30.8451C19.7769 31.175 19.686 31.508 19.4827 31.7712C19.2793 32.0343 18.98 32.2062 18.6502 32.2492C18.6026 32.2644 18.5527 32.2708 18.5028 32.2683Z" fill="url(#paint1_radial_474_2522)"/>
<path d="M12.8932 34.0545C12.5912 34.0523 12.3002 33.9414 12.0732 33.7421C11.8463 33.5428 11.6988 33.2685 11.6576 32.9693C11.3935 30.5499 10.3116 28.293 8.59074 26.5719C6.86986 24.8508 4.61309 23.7687 2.19366 23.5044C2.03034 23.4836 1.87271 23.4308 1.72979 23.3491C1.58686 23.2674 1.46144 23.1583 1.36066 23.0281C1.25989 22.8979 1.18576 22.7491 1.14248 22.5903C1.09921 22.4314 1.08765 22.2656 1.10846 22.1023C1.12927 21.9389 1.18204 21.7813 1.26377 21.6384C1.34549 21.4955 1.45457 21.37 1.58477 21.2693C1.71497 21.1685 1.86375 21.0944 2.0226 21.0511C2.18145 21.0078 2.34727 20.9962 2.51059 21.0171C5.48065 21.3413 8.25107 22.6696 10.3637 24.7822C12.4763 26.8949 13.8046 29.6653 14.1289 32.6353C14.1704 32.9653 14.0795 33.2983 13.8761 33.5614C13.6728 33.8246 13.3734 33.9965 13.0437 34.0395C12.9947 34.0527 12.9439 34.0578 12.8932 34.0545Z" fill="url(#paint2_radial_474_2522)"/>
<path d="M6.55151 35.1227C6.24985 35.1202 5.95913 35.0094 5.73245 34.8103C5.50578 34.6112 5.35827 34.3373 5.31687 34.0385C5.20132 32.9667 4.72271 31.9667 3.96048 31.2045C3.19825 30.4423 2.19825 29.9637 1.12651 29.8481C0.963186 29.8273 0.805563 29.7745 0.662638 29.6928C0.519713 29.6111 0.394284 29.502 0.293514 29.3718C0.192744 29.2416 0.118605 29.0928 0.0753311 28.934C0.032057 28.7751 0.0204951 28.6093 0.0413053 28.446C0.0621156 28.2827 0.11489 28.125 0.196617 27.9821C0.278343 27.8392 0.387421 27.7138 0.517621 27.613C0.647821 27.5122 0.796595 27.4381 0.955447 27.3948C1.1143 27.3515 1.28012 27.34 1.44344 27.3608C3.06337 27.5535 4.57139 28.2855 5.72494 29.439C6.87848 30.5926 7.61048 32.1006 7.8032 33.7205C7.84472 34.0505 7.75385 34.3835 7.55047 34.6466C7.3471 34.9098 7.04778 35.0817 6.718 35.1247L6.55151 35.1227Z" fill="url(#paint3_radial_474_2522)"/>
<defs>
<radialGradient id="paint0_radial_474_2522" cx="0" cy="0" r="1" gradientUnits="userSpaceOnUse" gradientTransform="translate(3.19285 19.9454) rotate(7.70107) scale(36.7377 77.7825)">
<stop stop-color="#628ECD"/>
<stop offset="0.578125" stop-color="#D5DEEF"/>
</radialGradient>
<radialGradient id="paint1_radial_474_2522" cx="0" cy="0" r="1" gradientUnits="userSpaceOnUse" gradientTransform="translate(3.19285 19.9454) rotate(7.70107) scale(36.7377 77.7825)">
<stop stop-color="#628ECD"/>
<stop offset="0.578125" stop-color="#D5DEEF"/>
</radialGradient>
<radialGradient id="paint2_radial_474_2522" cx="0" cy="0" r="1" gradientUnits="userSpaceOnUse" gradientTransform="translate(3.19285 19.9454) rotate(7.70107) scale(36.7377 77.7825)">
<stop stop-color="#628ECD"/>
<stop offset="0.578125" stop-color="#D5DEEF"/>
</radialGradient>
<radialGradient id="paint3_radial_474_2522" cx="0" cy="0" r="1" gradientUnits="userSpaceOnUse" gradientTransform="translate(3.19285 19.9454) rotate(7.70107) scale(36.7377 77.7825)">
<stop stop-color="#628ECD"/>
<stop offset="0.578125" stop-color="#D5DEEF"/>
</radialGradient>
</defs>
</svg>
