<svg width="37" height="41" viewBox="0 0 37 41" fill="none" xmlns="http://www.w3.org/2000/svg">
<path d="M14.2716 40.3801H14.7737C17.5705 40.3865 20.3016 39.5261 22.5891 37.9169C24.8761 36.3157 26.6108 34.0458 27.5565 31.4191C27.9473 30.2814 28.1734 29.0938 28.2281 27.8921V27.8758C28.3329 27.3797 28.3321 26.8672 28.2247 26.3717C28.1173 25.8762 27.9056 25.4088 27.6048 25.0007C27.0558 24.3258 26.2791 23.8758 25.4204 23.7358L23.5393 23.6345H5.51839L3.63724 23.7358C2.77896 23.8769 2.00139 24.3266 1.45174 25.0007C1.15124 25.409 0.941629 25.8764 0.835171 26.372C0.728713 26.8676 0.72883 27.3801 0.835171 27.8758V27.8943C0.88873 29.0963 1.11527 30.2841 1.50789 31.4213C2.45266 34.048 4.18758 36.3174 6.47525 37.9169C8.75715 39.5235 11.4809 40.3839 14.2716 40.3801Z" fill="url(#paint0_radial_474_2638)"/>
<path d="M11.1888 16.8351C12.211 17.2589 13.3071 17.4756 14.4137 17.4727C15.5211 17.4757 16.6177 17.2591 17.6409 16.8354C18.6642 16.4116 19.5933 15.7889 20.3744 15.0037C21.159 14.2233 21.7816 13.295 22.205 12.2726C22.6285 11.2503 22.8449 10.1543 22.8418 9.04771C22.8448 7.94065 22.6285 6.84401 22.205 5.82112C21.7816 4.79822 21.159 3.86921 20.3744 3.08811C19.5935 2.30293 18.6651 1.68058 17.642 1.25694C16.6188 0.833306 15.5217 0.616819 14.4143 0.620157C13.3076 0.616728 12.2112 0.833283 11.1888 1.25694C10.1664 1.6806 9.23854 2.30292 8.4586 3.08811C7.67372 3.869 7.05161 4.79791 6.62799 5.82084C6.20437 6.84376 5.98709 7.94054 5.99008 9.04771C5.98704 10.1544 6.20323 11.2505 6.62687 12.2729C7.0505 13.2953 7.67372 14.2235 8.4586 15.0037C9.23864 15.7888 10.1664 16.4113 11.1888 16.8351Z" fill="url(#paint1_radial_474_2638)"/>
<path d="M27.6917 34.0297C27.5089 34.3758 27.4307 34.5495 27.4986 34.7588L27.5031 34.7552C27.5663 34.9645 27.9635 34.8633 27.9635 34.8633L28.5138 34.7552L29.4269 34.5011L30.3018 34.156C30.977 33.8625 31.6207 33.5015 32.2233 33.0784C34.0568 31.7951 35.4479 29.9759 36.2058 27.8702C36.5199 26.9582 36.7012 26.0058 36.7448 25.0423V25.0293C36.8289 24.6324 36.8277 24.2222 36.7415 23.8257C36.6552 23.4292 36.4864 23.0555 36.2451 22.7293C35.8059 22.189 35.1835 21.8283 34.4964 21.7151C34.4964 21.7151 33.5388 21.6208 31.3193 21.6208C30.2576 21.619 29.6945 21.6331 29.022 21.65C28.4043 21.6655 27.6945 21.6833 26.4215 21.6932C26.2087 21.6661 25.9926 21.7038 25.8016 21.8013C25.7416 21.8428 25.6925 21.8988 25.6601 21.9642C25.6277 22.0296 25.6129 22.1022 25.6163 22.175C25.6258 22.2541 25.6543 22.3297 25.7005 22.3946C25.7467 22.4595 25.8086 22.5117 25.8802 22.5465C26.0489 22.6361 26.1062 22.6434 26.2675 22.664C26.3525 22.6748 26.4664 22.6893 26.6405 22.7214C27.3027 22.8232 27.9362 23.0635 28.4992 23.4264C28.8268 23.6363 29.0705 23.954 29.1888 24.3246C29.353 24.6782 29.432 25.0653 29.419 25.455C29.4478 26.4222 29.4432 27.3215 29.419 27.8965V27.9126C29.3832 29.125 29.1718 30.326 28.7912 31.4778C28.6866 31.771 28.5792 32.0528 28.4723 32.3161C28.4297 32.4288 28.3868 32.538 28.3442 32.6415C28.1326 33.1464 27.9125 33.6133 27.6917 34.0297Z" fill="url(#paint2_radial_474_2638)"/>
<path d="M22.2134 14.8689C22.0581 15.0655 21.9313 15.2313 22.0348 15.4992C22.1159 15.71 22.2482 15.7676 22.4465 15.8539C22.5014 15.8778 22.5613 15.9039 22.6267 15.9361C23.5791 16.4226 24.6344 16.6758 25.7039 16.6745C26.9044 16.6778 28.0837 16.3601 29.1203 15.7544C29.6084 15.4636 30.0585 15.1133 30.4601 14.7114C31.0892 14.0858 31.5873 13.3418 31.9269 12.5222C32.2664 11.7026 32.4403 10.8238 32.4379 9.93662C32.4402 9.04912 32.2664 8.16988 31.9269 7.34989C31.5873 6.52991 31.0892 5.7854 30.4601 5.15934C29.8343 4.52999 29.0902 4.03102 28.2701 3.69148C27.4501 3.35193 26.5701 3.1786 25.6826 3.18132C25.4298 3.18134 25.1769 3.19504 24.9256 3.22259H24.9099C24.4007 3.2793 23.8996 3.39191 23.4151 3.55839C23.1276 3.6596 23.0209 3.70679 22.922 3.9759C22.883 4.08551 22.8713 4.20304 22.8883 4.31815C22.9054 4.43327 22.9506 4.54241 23.0197 4.63598C23.7033 6.00969 24.0643 7.52125 24.0754 9.05556C24.0739 10.233 23.8729 11.4019 23.4825 12.5127C23.2877 13.0686 23.0379 13.6033 22.7356 14.1088C22.5779 14.3731 22.4034 14.6268 22.2134 14.8689Z" fill="url(#paint3_radial_474_2638)"/>
<defs>
<radialGradient id="paint0_radial_474_2638" cx="0" cy="0" r="1" gradientUnits="userSpaceOnUse" gradientTransform="translate(3.92792 22.7619) rotate(8.88959) scale(36.9765 90.0074)">
<stop stop-color="#628ECD"/>
<stop offset="0.578125" stop-color="#D5DEEF"/>
</radialGradient>
<radialGradient id="paint1_radial_474_2638" cx="0" cy="0" r="1" gradientUnits="userSpaceOnUse" gradientTransform="translate(3.92792 22.7619) rotate(8.88959) scale(36.9765 90.0074)">
<stop stop-color="#628ECD"/>
<stop offset="0.578125" stop-color="#D5DEEF"/>
</radialGradient>
<radialGradient id="paint2_radial_474_2638" cx="0" cy="0" r="1" gradientUnits="userSpaceOnUse" gradientTransform="translate(3.92792 22.7619) rotate(8.88959) scale(36.9765 90.0074)">
<stop stop-color="#628ECD"/>
<stop offset="0.578125" stop-color="#D5DEEF"/>
</radialGradient>
<radialGradient id="paint3_radial_474_2638" cx="0" cy="0" r="1" gradientUnits="userSpaceOnUse" gradientTransform="translate(3.92792 22.7619) rotate(8.88959) scale(36.9765 90.0074)">
<stop stop-color="#628ECD"/>
<stop offset="0.578125" stop-color="#D5DEEF"/>
</radialGradient>
</defs>
</svg>
