<svg width="16" height="16" viewBox="0 0 16 16" fill="none" xmlns="http://www.w3.org/2000/svg">
  <path d="M13.3333 6H6.66667C5.93333 6 5.33333 6.6 5.33333 7.33333V14C5.33333 14.7333 5.93333 15.3333 6.66667 15.3333H13.3333C14.0667 15.3333 14.6667 14.7333 14.6667 14V7.33333C14.6667 6.6 14.0667 6 13.3333 6Z" stroke="#090A0A" stroke-width="1.2" stroke-linecap="round" stroke-linejoin="round"/>
  <path d="M2.66667 10H2C1.46957 10 0.960859 9.78929 0.585786 9.41421C0.210714 9.03914 0 8.53043 0 8V2C0 1.46957 0.210714 0.960859 0.585786 0.585786C0.960859 0.210714 1.46957 0 2 0H8C8.53043 0 9.03914 0.210714 9.41421 0.585786C9.78929 0.960859 10 1.46957 10 2V2.66667" stroke="#090A0A" stroke-width="1.2" stroke-linecap="round" stroke-linejoin="round"/>
</svg>
