<svg width="11" height="11" viewBox="0 0 11 11" fill="none" xmlns="http://www.w3.org/2000/svg">
<g id="Vector">
<path d="M10.0504 7.68747C9.99418 7.76278 9.93233 7.83408 9.86524 7.90015L9.44348 8.11554L9.44196 8.13934C9.43489 8.24826 9.42618 8.38236 9.50172 8.47182C9.54189 8.51922 9.5933 8.53538 9.64231 8.53538C9.69252 8.53538 9.73952 8.51821 9.76804 8.50014C9.88734 8.42382 9.99941 8.33756 10.101 8.24377C10.2023 8.14999 10.2963 8.04575 10.3798 7.93399C10.4634 7.82243 10.5393 7.69992 10.6055 7.56978C10.6722 7.43984 10.7305 7.29866 10.7799 7.14994C10.8289 7.00162 10.8703 6.84136 10.9028 6.67367C10.9353 6.50657 10.9598 6.32693 10.9759 6.13985C10.992 5.95358 11 5.75435 11 5.5475V3.47059C11 2.25977 10.7269 1.39779 10.1645 0.835564C9.60214 0.273333 8.74013 0 7.52945 0H5.45235C5.24548 0 5.04625 0.00823413 4.86027 0.0242003C4.67308 0.0403673 4.49353 0.0649693 4.32643 0.0973034C4.15853 0.129838 3.99825 0.17131 3.85003 0.220414C3.70141 0.269718 3.56002 0.328261 3.43027 0.394435C3.30013 0.46071 3.17761 0.536825 3.06595 0.620472C2.95428 0.704119 2.84984 0.797908 2.75585 0.899328C2.66225 1.00065 2.57589 1.11271 2.49957 1.23211C2.42365 1.3514 2.43571 1.43676 2.49957 1.5201C2.55164 1.58737 2.58444 1.58368 2.67681 1.5733C2.69916 1.57078 2.725 1.56788 2.75545 1.56549L2.99656 1.21765L3.09969 1.1348C3.16516 1.06863 3.23666 1.00647 3.31258 0.949637C3.40577 0.879847 3.5082 0.816284 3.61706 0.760954C3.72832 0.704219 3.85003 0.65371 3.97937 0.610832C4.11153 0.567151 4.25453 0.530198 4.40476 0.501077C4.5578 0.471454 4.72289 0.448861 4.89562 0.433999C5.07075 0.418937 5.25834 0.411305 5.45235 0.411305H7.52945C8.62565 0.411305 9.39246 0.645175 9.87368 1.12647C10.3549 1.60746 10.5887 2.37424 10.5887 3.47059V5.5475C10.5887 5.74341 10.581 5.93079 10.5662 6.10451C10.5513 6.27813 10.5288 6.44321 10.4991 6.59504C10.4698 6.74586 10.4328 6.88906 10.3894 7.0209C10.3461 7.15114 10.2954 7.27285 10.2396 7.382C10.1834 7.49236 10.1199 7.59478 10.0504 7.68747ZM5.54765 10.5887C6.64385 10.5887 7.41066 10.3548 7.89188 9.87373C8.37309 9.39264 8.60687 8.62576 8.60687 7.52951V5.4526C8.60687 4.35636 8.37309 3.58958 7.89188 3.10839C7.41066 2.62719 6.64385 2.39332 5.54765 2.39332H3.47055C2.37435 2.39332 1.60754 2.62719 1.12632 3.10839C0.645104 3.58958 0.411324 4.35636 0.411324 5.4526V7.52951C0.411324 8.62576 0.645104 9.39254 1.12632 9.87363C1.60754 10.3548 2.37435 10.5887 3.47055 10.5887H5.54765ZM5.54765 11H3.47055C1.07129 11 0 9.92886 0 7.52951V5.4526C0 3.05336 1.07129 1.98202 3.47055 1.98202H5.54765C7.94731 1.98202 9.0182 3.05336 9.0182 5.4526V7.52951C9.0182 9.92886 7.94731 11 5.54765 11Z" fill="#434343"/>
<path d="M10.0504 7.68747C9.99418 7.76278 9.93233 7.83408 9.86524 7.90015L9.44348 8.11554L9.44196 8.13934C9.43489 8.24826 9.42618 8.38236 9.50172 8.47182C9.54189 8.51922 9.5933 8.53538 9.64231 8.53538C9.69252 8.53538 9.73952 8.51821 9.76804 8.50014C9.88734 8.42382 9.99941 8.33756 10.101 8.24377C10.2023 8.14999 10.2963 8.04575 10.3798 7.93399C10.4634 7.82243 10.5393 7.69992 10.6055 7.56978C10.6722 7.43984 10.7305 7.29866 10.7799 7.14994C10.8289 7.00162 10.8703 6.84136 10.9028 6.67367C10.9353 6.50657 10.9598 6.32693 10.9759 6.13985C10.992 5.95358 11 5.75435 11 5.5475V3.47059C11 2.25977 10.7269 1.39779 10.1645 0.835564C9.60214 0.273333 8.74013 0 7.52945 0H5.45235C5.24548 0 5.04625 0.00823413 4.86027 0.0242003C4.67308 0.0403673 4.49353 0.0649693 4.32643 0.0973034C4.15853 0.129838 3.99825 0.17131 3.85003 0.220414C3.70141 0.269718 3.56002 0.328261 3.43027 0.394435C3.30013 0.46071 3.17761 0.536825 3.06595 0.620472C2.95428 0.704119 2.84984 0.797908 2.75585 0.899328C2.66225 1.00065 2.57589 1.11271 2.49957 1.23211C2.42365 1.3514 2.43571 1.43676 2.49957 1.5201C2.55164 1.58737 2.58444 1.58368 2.67681 1.5733C2.69916 1.57078 2.725 1.56788 2.75545 1.56549L2.99656 1.21765L3.09969 1.1348C3.16516 1.06863 3.23666 1.00647 3.31258 0.949637C3.40577 0.879847 3.5082 0.816284 3.61706 0.760954C3.72832 0.704219 3.85003 0.65371 3.97937 0.610832C4.11153 0.567151 4.25453 0.530198 4.40476 0.501077C4.5578 0.471454 4.72289 0.448861 4.89562 0.433999C5.07075 0.418937 5.25834 0.411305 5.45235 0.411305H7.52945C8.62565 0.411305 9.39246 0.645175 9.87368 1.12647C10.3549 1.60746 10.5887 2.37424 10.5887 3.47059V5.5475C10.5887 5.74341 10.581 5.93079 10.5662 6.10451C10.5513 6.27813 10.5288 6.44321 10.4991 6.59504C10.4698 6.74586 10.4328 6.88906 10.3894 7.0209C10.3461 7.15114 10.2954 7.27285 10.2396 7.382C10.1834 7.49236 10.1199 7.59478 10.0504 7.68747ZM5.54765 10.5887C6.64385 10.5887 7.41066 10.3548 7.89188 9.87373C8.37309 9.39264 8.60687 8.62576 8.60687 7.52951V5.4526C8.60687 4.35636 8.37309 3.58958 7.89188 3.10839C7.41066 2.62719 6.64385 2.39332 5.54765 2.39332H3.47055C2.37435 2.39332 1.60754 2.62719 1.12632 3.10839C0.645104 3.58958 0.411324 4.35636 0.411324 5.4526V7.52951C0.411324 8.62576 0.645104 9.39254 1.12632 9.87363C1.60754 10.3548 2.37435 10.5887 3.47055 10.5887H5.54765ZM5.54765 11H3.47055C1.07129 11 0 9.92886 0 7.52951V5.4526C0 3.05336 1.07129 1.98202 3.47055 1.98202H5.54765C7.94731 1.98202 9.0182 3.05336 9.0182 5.4526V7.52951C9.0182 9.92886 7.94731 11 5.54765 11Z" stroke="#434343"/>
</g>
</svg>
