<svg width="16" height="16" viewBox="0 0 16 16" fill="none" xmlns="http://www.w3.org/2000/svg">
  <path d="M13.3333 6H5.83333C4.91286 6 4.16667 6.74619 4.16667 7.66667V15C4.16667 15.9205 4.91286 16.6667 5.83333 16.6667H13.3333C14.2538 16.6667 15 15.9205 15 15V7.66667C15 6.74619 14.2538 6 13.3333 6Z" stroke="#090A0A" stroke-width="1.5" stroke-linecap="round" stroke-linejoin="round"/>
  <path d="M0.833333 11H0C-0.442024 11 -0.866133 10.8244 -1.17851 10.5118C-1.49107 10.1993 -1.66667 9.77536 -1.66667 9.33333V1.83333C-1.66667 1.39131 -1.49107 0.967377 -1.17851 0.654819C-0.866133 0.342261 -0.442024 0.166667 0 0.166667H7.5C7.94202 0.166667 8.36595 0.342261 8.67851 0.654819C8.99107 0.967377 9.16667 1.39131 9.16667 1.83333V2.66667" stroke="#090A0A" stroke-width="1.5" stroke-linecap="round" stroke-linejoin="round"/>
</svg>
